<?xml version="1.0" encoding="us-ascii" standalone="no"?><svg xmlns="http://www.w3.org/2000/svg" xmlns:xlink="http://www.w3.org/1999/xlink" contentStyleType="text/css" height="349px" preserveAspectRatio="none" style="width:462px;height:349px;background:#FFFFFF;" version="1.1" viewBox="0 0 462 349" width="462px" zoomAndPan="magnify"><defs/><g><line style="stroke:#181818;stroke-width:0.5;stroke-dasharray:5.0,5.0;" x1="32" x2="32" y1="36.4883" y2="313.6621"/><line style="stroke:#181818;stroke-width:0.5;stroke-dasharray:5.0,5.0;" x1="103" x2="103" y1="36.4883" y2="313.6621"/><line style="stroke:#181818;stroke-width:0.5;stroke-dasharray:5.0,5.0;" x1="335.5" x2="335.5" y1="36.4883" y2="313.6621"/><rect fill="#E2E2F0" height="30.4883" rx="2.5" ry="2.5" style="stroke:#181818;stroke-width:0.5;" width="54" x="5" y="5"/><text fill="#000000" font-family="sans-serif" font-size="14" lengthAdjust="spacing" textLength="40" x="12" y="25.5352">Client</text><rect fill="#E2E2F0" height="30.4883" rx="2.5" ry="2.5" style="stroke:#181818;stroke-width:0.5;" width="54" x="5" y="312.6621"/><text fill="#000000" font-family="sans-serif" font-size="14" lengthAdjust="spacing" textLength="40" x="12" y="333.1973">Client</text><rect fill="#E2E2F0" height="30.4883" rx="2.5" ry="2.5" style="stroke:#181818;stroke-width:0.5;" width="60" x="73" y="5"/><text fill="#000000" font-family="sans-serif" font-size="14" lengthAdjust="spacing" textLength="46" x="80" y="25.5352">Leader</text><rect fill="#E2E2F0" height="30.4883" rx="2.5" ry="2.5" style="stroke:#181818;stroke-width:0.5;" width="60" x="73" y="312.6621"/><text fill="#000000" font-family="sans-serif" font-size="14" lengthAdjust="spacing" textLength="46" x="80" y="333.1973">Leader</text><rect fill="#E2E2F0" height="30.4883" rx="2.5" ry="2.5" style="stroke:#181818;stroke-width:0.5;" width="73" x="299.5" y="5"/><text fill="#000000" font-family="sans-serif" font-size="14" lengthAdjust="spacing" textLength="59" x="306.5" y="25.5352">Follower</text><rect fill="#E2E2F0" height="30.4883" rx="2.5" ry="2.5" style="stroke:#181818;stroke-width:0.5;" width="73" x="299.5" y="312.6621"/><text fill="#000000" font-family="sans-serif" font-size="14" lengthAdjust="spacing" textLength="59" x="306.5" y="333.1973">Follower</text><polygon fill="#181818" points="91,63.7988,101,67.7988,91,71.7988,95,67.7988" style="stroke:#181818;stroke-width:1.0;"/><line style="stroke:#181818;stroke-width:1.0;" x1="32" x2="97" y1="67.7988" y2="67.7988"/><text fill="#000000" font-family="sans-serif" font-size="13" lengthAdjust="spacing" textLength="47" x="39" y="63.0566">&#20889;&#25805;&#20316;X</text><line style="stroke:#181818;stroke-width:1.0;" x1="103" x2="145" y1="97.1094" y2="97.1094"/><line style="stroke:#181818;stroke-width:1.0;" x1="145" x2="145" y1="97.1094" y2="110.1094"/><line style="stroke:#181818;stroke-width:1.0;" x1="104" x2="145" y1="110.1094" y2="110.1094"/><polygon fill="#181818" points="114,106.1094,104,110.1094,114,114.1094,110,110.1094" style="stroke:#181818;stroke-width:1.0;"/><text fill="#000000" font-family="sans-serif" font-size="13" lengthAdjust="spacing" textLength="209" x="110" y="92.3672">&#23558;X&#20889;&#20837;&#26412;&#22320;&#26085;&#24535;&#65288;uncommitted&#65289;</text><polygon fill="#181818" points="324,135.4199,334,139.4199,324,143.4199,328,139.4199" style="stroke:#181818;stroke-width:1.0;"/><line style="stroke:#181818;stroke-width:1.0;" x1="103" x2="330" y1="139.4199" y2="139.4199"/><text fill="#000000" font-family="sans-serif" font-size="13" lengthAdjust="spacing" textLength="133" x="110" y="134.6777">&#21457;&#36865;AppendEntries(X)</text><line style="stroke:#181818;stroke-width:1.0;" x1="336" x2="378" y1="168.7305" y2="168.7305"/><line style="stroke:#181818;stroke-width:1.0;" x1="378" x2="378" y1="168.7305" y2="181.7305"/><line style="stroke:#181818;stroke-width:1.0;" x1="337" x2="378" y1="181.7305" y2="181.7305"/><polygon fill="#181818" points="347,177.7305,337,181.7305,347,185.7305,343,181.7305" style="stroke:#181818;stroke-width:1.0;"/><text fill="#000000" font-family="sans-serif" font-size="13" lengthAdjust="spacing" textLength="99" x="343" y="163.9883">&#23558;X&#20889;&#20837;&#26412;&#22320;&#26085;&#24535;</text><polygon fill="#181818" points="114,207.041,104,211.041,114,215.041,110,211.041" style="stroke:#181818;stroke-width:1.0;"/><line style="stroke:#181818;stroke-width:1.0;stroke-dasharray:2.0,2.0;" x1="108" x2="335" y1="211.041" y2="211.041"/><text fill="#000000" font-family="sans-serif" font-size="13" lengthAdjust="spacing" textLength="52" x="120" y="206.2988">&#36820;&#22238;ACK</text><line style="stroke:#181818;stroke-width:1.0;" x1="103" x2="145" y1="240.3516" y2="240.3516"/><line style="stroke:#181818;stroke-width:1.0;" x1="145" x2="145" y1="240.3516" y2="253.3516"/><line style="stroke:#181818;stroke-width:1.0;" x1="104" x2="145" y1="253.3516" y2="253.3516"/><polygon fill="#181818" points="114,249.3516,104,253.3516,114,257.3516,110,253.3516" style="stroke:#181818;stroke-width:1.0;"/><text fill="#000000" font-family="sans-serif" font-size="13" lengthAdjust="spacing" textLength="219" x="110" y="235.6094">&#25910;&#21040;&#22810;&#25968;ACK&#21518;&#25552;&#20132;X&#65288;committed&#65289;</text><line style="stroke:#181818;stroke-width:1.0;" x1="336" x2="378" y1="282.6621" y2="282.6621"/><line style="stroke:#181818;stroke-width:1.0;" x1="378" x2="378" y1="282.6621" y2="295.6621"/><line style="stroke:#181818;stroke-width:1.0;" x1="337" x2="378" y1="295.6621" y2="295.6621"/><polygon fill="#181818" points="347,291.6621,337,295.6621,347,299.6621,343,295.6621" style="stroke:#181818;stroke-width:1.0;"/><text fill="#000000" font-family="sans-serif" font-size="13" lengthAdjust="spacing" textLength="112" x="343" y="277.9199">&#24322;&#27493;&#24212;&#29992;X&#21040;&#29366;&#24577;&#26426;</text><!--SRC=[Syx9JCqhKT2rK_19JKn9BR9IUDesyzdatYTxvqHmGOHG93UqHG0LF6rT-cpEcgTpDZoRllJf_kdlztIKvYNdv-PcbfIafhpVqucaqoq_9oU_7AotV-BBXaR7WeBKl1JNl9AYpDHYZGXDBfW2DCLOBK9IZEIe5_kdF9qzpz7P6uk3dqtPzhHZmzCbivvDtG1KyNH2txF-2KzsBOa0kXd5nJYSiQVfsTgbJtTDUJvbHGJGeETTsvurD3wRimi0]--></g></svg>