<svg width="627" xmlns:ev="http://www.w3.org/2001/xml-events" viewBox="0 0 627 1019" xmlns:ed="https://www.edrawsoft.cn/xml/2017/SVGExtensions/" ed:name="反应式设计模式" height="1019" ed:hSpacing="30" ed:vSpacing="30" xmlns:xlink="http://www.w3.org/1999/xlink" id="page300000101" xmlns="http://www.w3.org/2000/svg"><style type="text/css"><![CDATA[
g[ed\:togtopicid],g[ed\:hyperlink],g[ed\:comment],g[ed\:note] {cursor:pointer;}
g[id] {-moz-user-select: none;-ms-user-select: none;user-select: none;}
svg text::selection,svg tspan::selection{background-color: #4285f4;color: #ffffff;fill: #ffffff;}
.st6 {fill:#303030;font-family:微软雅黑;font-size:10pt}
.st5 {fill:#303030;font-family:微软雅黑;font-size:14pt;font-weight:bold}
.st4 {fill:#303030;font-family:微软雅黑;font-size:18pt;font-weight:bold}
]]></style><defs/><rect width="627" height="1019" fill="#ffffff" y="0" x="0"/><path d="M-59.9,182.7C-48,19.4,-10.7,-214.3,69.3,-214.3" stroke-width="3" ed:parentid="102" stroke-linejoin="round" fill="none" transform="matrix(1,0,0,1,167.84,293)" ed:tosuperid="103" stroke-linecap="round" stroke="#44488c" id="104"/><path d="M-55.4,114.4C-42.7,3.9,-6.3,-145.9,69.3,-145.9" stroke-width="3" ed:parentid="102" stroke-linejoin="round" fill="none" transform="matrix(1,0,0,1,167.84,361.38)" ed:tosuperid="105" stroke-linecap="round" stroke="#ff7c78" id="106"/><path d="M-39.6,38.1C-25.2,-11.9,7.7,-69.6,69.3,-69.6" stroke-width="3" ed:parentid="102" stroke-linejoin="round" fill="none" transform="matrix(1,0,0,1,167.84,437.63)" ed:tosuperid="107" stroke-linecap="round" stroke="#46ba7d" id="108"/><path d="M-13.5,23.6L0,23.6L0,-17.6C0,-20.9,2.7,-23.6,6,-23.6L13.5,-23.6" ed:parentid="103" stroke-linejoin="round" fill="none" transform="matrix(1,0,0,1,433.14,55.13)" ed:tosuperid="109" stroke-linecap="round" stroke="#44488c" id="110"/><path d="M0,7.9L0,-1.9C0,-5.2,2.7,-7.9,6,-7.9L13.5,-7.9" ed:parentid="103" stroke-linejoin="round" fill="none" transform="matrix(1,0,0,1,433.14,70.88)" ed:tosuperid="111" stroke-linecap="round" stroke="#44488c" id="112"/><path d="M0,-7.9L0,1.9C0,5.2,2.7,7.9,6,7.9L13.5,7.9" ed:parentid="103" stroke-linejoin="round" fill="none" transform="matrix(1,0,0,1,433.14,86.63)" ed:tosuperid="113" stroke-linecap="round" stroke="#44488c" id="114"/><path d="M0,-23.6L0,17.6C0,20.9,2.7,23.6,6,23.6L13.5,23.6" ed:parentid="103" stroke-linejoin="round" fill="none" transform="matrix(1,0,0,1,433.14,102.38)" ed:tosuperid="115" stroke-linecap="round" stroke="#44488c" id="116"/><path d="M-13.5,15.8L0,15.8L0,-9.8C0,-13.1,2.7,-15.8,6,-15.8L13.5,-15.8" ed:parentid="105" stroke-linejoin="round" fill="none" transform="matrix(1,0,0,1,376.14,199.75)" ed:tosuperid="119" stroke-linecap="round" stroke="#ff7c78" id="120"/><path d="M0,0C0,0,2.7,0,6,0L13.5,0" ed:parentid="105" stroke-linejoin="round" fill="none" transform="matrix(1,0,0,1,376.14,215.5)" ed:tosuperid="121" stroke-linecap="round" stroke="#ff7c78" id="122"/><path d="M0,-15.8L0,9.8C0,13.1,2.7,15.8,6,15.8L13.5,15.8" ed:parentid="105" stroke-linejoin="round" fill="none" transform="matrix(1,0,0,1,376.14,231.25)" ed:tosuperid="123" stroke-linecap="round" stroke="#ff7c78" id="124"/><path d="M-13.5,31.5L0,31.5L0,-25.5C0,-28.8,2.7,-31.5,6,-31.5L13.5,-31.5" ed:parentid="107" stroke-linejoin="round" fill="none" transform="matrix(1,0,0,1,414.14,336.5)" ed:tosuperid="127" stroke-linecap="round" stroke="#46ba7d" id="128"/><path d="M0,15.8L0,-9.8C0,-13.1,2.7,-15.8,6,-15.8L13.5,-15.8" ed:parentid="107" stroke-linejoin="round" fill="none" transform="matrix(1,0,0,1,414.14,352.25)" ed:tosuperid="129" stroke-linecap="round" stroke="#46ba7d" id="130"/><path d="M0,0C0,0,2.7,0,6,0L13.5,0" ed:parentid="107" stroke-linejoin="round" fill="none" transform="matrix(1,0,0,1,414.14,368)" ed:tosuperid="131" stroke-linecap="round" stroke="#46ba7d" id="132"/><path d="M0,-15.8L0,9.8C0,13.1,2.7,15.8,6,15.8L13.5,15.8" ed:parentid="107" stroke-linejoin="round" fill="none" transform="matrix(1,0,0,1,414.14,383.75)" ed:tosuperid="133" stroke-linecap="round" stroke="#46ba7d" id="134"/><path d="M0,-31.5L0,25.5C0,28.8,2.7,31.5,6,31.5L13.5,31.5" ed:parentid="107" stroke-linejoin="round" fill="none" transform="matrix(1,0,0,1,414.14,399.5)" ed:tosuperid="135" stroke-linecap="round" stroke="#46ba7d" id="136"/><path d="M-15.4,-8.2C-1,15.4,25.5,38.1,69.3,38.1" stroke-width="3" ed:parentid="102" stroke-linejoin="round" fill="none" transform="matrix(1,0,0,1,167.84,545.38)" ed:tosuperid="141" stroke-linecap="round" stroke="#c393e1" id="142"/><path d="M-13.5,47.3L0,47.3L0,-41.3C0,-44.6,2.7,-47.3,6,-47.3L13.5,-47.3" ed:parentid="141" stroke-linejoin="round" fill="none" transform="matrix(1,0,0,1,395.14,536.25)" ed:tosuperid="143" stroke-linecap="round" stroke="#c393e1" id="144"/><path d="M0,31.5L0,-25.5C0,-28.8,2.7,-31.5,6,-31.5L13.5,-31.5" ed:parentid="141" stroke-linejoin="round" fill="none" transform="matrix(1,0,0,1,395.14,552)" ed:tosuperid="145" stroke-linecap="round" stroke="#c393e1" id="146"/><path d="M0,15.8L0,-9.8C0,-13.1,2.7,-15.8,6,-15.8L13.5,-15.8" ed:parentid="141" stroke-linejoin="round" fill="none" transform="matrix(1,0,0,1,395.14,567.75)" ed:tosuperid="149" stroke-linecap="round" stroke="#c393e1" id="150"/><path d="M0,0C0,0,2.7,0,6,0L13.5,0" ed:parentid="141" stroke-linejoin="round" fill="none" transform="matrix(1,0,0,1,395.14,583.5)" ed:tosuperid="151" stroke-linecap="round" stroke="#c393e1" id="152"/><path d="M0,-15.8L0,9.8C0,13.1,2.7,15.8,6,15.8L13.5,15.8" ed:parentid="141" stroke-linejoin="round" fill="none" transform="matrix(1,0,0,1,395.14,599.25)" ed:tosuperid="153" stroke-linecap="round" stroke="#c393e1" id="154"/><path d="M0,-31.5L0,25.5C0,28.8,2.7,31.5,6,31.5L13.5,31.5" ed:parentid="141" stroke-linejoin="round" fill="none" transform="matrix(1,0,0,1,395.14,615)" ed:tosuperid="155" stroke-linecap="round" stroke="#c393e1" id="156"/><path d="M0,-47.3L0,41.3C0,44.6,2.7,47.3,6,47.3L13.5,47.3" ed:parentid="141" stroke-linejoin="round" fill="none" transform="matrix(1,0,0,1,395.14,630.75)" ed:tosuperid="157" stroke-linecap="round" stroke="#c393e1" id="158"/><path d="M-54.6,-106.5C-41.7,-2.1,-5.5,138,69.3,138" stroke-width="3" ed:parentid="102" stroke-linejoin="round" fill="none" transform="matrix(1,0,0,1,167.84,645.25)" ed:tosuperid="159" stroke-linecap="round" stroke="#2faea9" id="160"/><path d="M-13.5,23.6L0,23.6L0,-17.6C0,-20.9,2.7,-23.6,6,-23.6L13.5,-23.6" ed:parentid="159" stroke-linejoin="round" fill="none" transform="matrix(1,0,0,1,414.14,759.63)" ed:tosuperid="161" stroke-linecap="round" stroke="#2faea9" id="162"/><path d="M0,7.9L0,-1.9C0,-5.2,2.7,-7.9,6,-7.9L13.5,-7.9" ed:parentid="159" stroke-linejoin="round" fill="none" transform="matrix(1,0,0,1,414.14,775.38)" ed:tosuperid="163" stroke-linecap="round" stroke="#2faea9" id="164"/><path d="M0,-7.9L0,1.9C0,5.2,2.7,7.9,6,7.9L13.5,7.9" ed:parentid="159" stroke-linejoin="round" fill="none" transform="matrix(1,0,0,1,414.14,791.13)" ed:tosuperid="165" stroke-linecap="round" stroke="#2faea9" id="166"/><path d="M0,-23.6L0,17.6C0,20.9,2.7,23.6,6,23.6L13.5,23.6" ed:parentid="159" stroke-linejoin="round" fill="none" transform="matrix(1,0,0,1,414.14,806.88)" ed:tosuperid="167" stroke-linecap="round" stroke="#2faea9" id="168"/><path d="M-59.9,-182.8C-48,-19.4,-10.7,214.3,69.3,214.3" stroke-width="3" ed:parentid="102" stroke-linejoin="round" fill="none" transform="matrix(1,0,0,1,167.84,721.5)" ed:tosuperid="169" stroke-linecap="round" stroke="#e85464" id="170"/><path d="M-13.5,23.6L0,23.6L0,-17.6C0,-20.9,2.7,-23.6,6,-23.6L13.5,-23.6" ed:parentid="169" stroke-linejoin="round" fill="none" transform="matrix(1,0,0,1,490.14,912.13)" ed:tosuperid="171" stroke-linecap="round" stroke="#e85464" id="172"/><path d="M0,7.9L0,-1.9C0,-5.2,2.7,-7.9,6,-7.9L13.5,-7.9" ed:parentid="169" stroke-linejoin="round" fill="none" transform="matrix(1,0,0,1,490.14,927.88)" ed:tosuperid="173" stroke-linecap="round" stroke="#e85464" id="174"/><path d="M0,-7.9L0,1.9C0,5.2,2.7,7.9,6,7.9L13.5,7.9" ed:parentid="169" stroke-linejoin="round" fill="none" transform="matrix(1,0,0,1,490.14,943.63)" ed:tosuperid="175" stroke-linecap="round" stroke="#e85464" id="176"/><path d="M0,-23.6L0,17.6C0,20.9,2.7,23.6,6,23.6L13.5,23.6" ed:parentid="169" stroke-linejoin="round" fill="none" transform="matrix(1,0,0,1,490.14,959.38)" ed:tosuperid="177" stroke-linecap="round" stroke="#e85464" id="178"/><g ed:topictype="mainidea" ed:layout="rightmap" transform="matrix(1,0,0,1,23,475.75)" ed:height="63" id="102" ed:width="151.12"><path d="M31.5,0L119.6,0C137,0,151.1,14.1,151.1,31.5C151.1,48.9,137,63,119.6,63L31.5,63C14.1,63,0,48.9,0,31.5C0,14.1,14.1,0,31.5,0z" stroke-width="3" stroke-linejoin="round" fill="#ffffff" stroke-linecap="round" stroke="#24405d"/><text class="st4"><tspan textLength="96" y="40.45" x="27" style="white-space:pre">设计模式</tspan></text></g><g ed:parentid="102" transform="matrix(1,0,0,1,237.12,56.75)" ed:height="44" id="103" ed:width="182.51999999999998"><path d="M22,0L160.5,0C172.7,0,182.5,9.8,182.5,22C182.5,34.2,172.7,44,160.5,44L22,44C9.8,44,0,34.2,0,22C0,9.8,9.8,0,22,0z" stroke-width="3" stroke-linejoin="round" fill="#ffffff" stroke-linecap="round" stroke="#44488c"/><text class="st5"><tspan textLength="133" y="28.45" x="25" style="white-space:pre">容错与恢复模式</tspan></text></g><g ed:parentid="102" transform="matrix(1,0,0,1,237.12,193.5)" ed:height="44" id="105" ed:width="125.51999999999998"><path d="M22,0L103.5,0C115.7,0,125.5,9.8,125.5,22C125.5,34.2,115.7,44,103.5,44L22,44C9.8,44,0,34.2,0,22C0,9.8,9.8,0,22,0z" stroke-width="3" stroke-linejoin="round" fill="#ffffff" stroke-linecap="round" stroke="#ff7c78"/><text class="st5"><tspan textLength="76" y="28.45" x="25" style="white-space:pre">复制模式</tspan></text></g><g ed:parentid="102" transform="matrix(1,0,0,1,237.12,346)" ed:height="44" id="107" ed:width="163.51999999999998"><path d="M22,0L141.5,0C153.7,0,163.5,9.8,163.5,22C163.5,34.2,153.7,44,141.5,44L22,44C9.8,44,0,34.2,0,22C0,9.8,9.8,0,22,0z" stroke-width="3" stroke-linejoin="round" fill="#ffffff" stroke-linecap="round" stroke="#46ba7d"/><text class="st5"><tspan textLength="114" y="28.45" x="25" style="white-space:pre">资源管理模式</tspan></text></g><g ed:parentid="103" transform="matrix(1,0,0,1,446.64,19)" ed:height="25" id="109" ed:width="102.03999999999999"><path d="M12.5,0L89.5,0C96.4,0,102,5.6,102,12.5C102,19.4,96.4,25,89.5,25L12.5,25C5.6,25,0,19.4,0,12.5C0,5.6,5.6,0,12.5,0z" stroke-linejoin="round" fill="none" stroke-linecap="round" stroke="#44488c"/><text class="st6"><tspan textLength="78" y="17.45" x="11" style="white-space:pre">简单组件模式</tspan></text></g><g ed:parentid="103" transform="matrix(1,0,0,1,446.64,50.5)" ed:height="25" id="111" ed:width="102.03999999999999"><path d="M12.5,0L89.5,0C96.4,0,102,5.6,102,12.5C102,19.4,96.4,25,89.5,25L12.5,25C5.6,25,0,19.4,0,12.5C0,5.6,5.6,0,12.5,0z" stroke-linejoin="round" fill="none" stroke-linecap="round" stroke="#44488c"/><text class="st6"><tspan textLength="78" y="17.45" x="11" style="white-space:pre">错误内核模式</tspan></text></g><g ed:parentid="103" transform="matrix(1,0,0,1,446.64,82)" ed:height="25" id="113" ed:width="102.03999999999999"><path d="M12.5,0L89.5,0C96.4,0,102,5.6,102,12.5C102,19.4,96.4,25,89.5,25L12.5,25C5.6,25,0,19.4,0,12.5C0,5.6,5.6,0,12.5,0z" stroke-linejoin="round" fill="none" stroke-linecap="round" stroke="#44488c"/><text class="st6"><tspan textLength="78" y="17.45" x="11" style="white-space:pre">放任崩溃模式</tspan></text></g><g ed:parentid="103" transform="matrix(1,0,0,1,446.64,113.5)" ed:height="25" id="115" ed:width="89.039999999999992"><path d="M12.5,0L76.5,0C83.4,0,89,5.6,89,12.5C89,19.4,83.4,25,76.5,25L12.5,25C5.6,25,0,19.4,0,12.5C0,5.6,5.6,0,12.5,0z" stroke-linejoin="round" fill="none" stroke-linecap="round" stroke="#44488c"/><text class="st6"><tspan textLength="65" y="17.45" x="11" style="white-space:pre">断路器模式</tspan></text></g><g ed:parentid="105" transform="matrix(1,0,0,1,389.64,171.5)" ed:height="25" id="119" ed:width="134.04000000000002"><path d="M12.5,0L121.5,0C128.4,0,134,5.6,134,12.5C134,19.4,128.4,25,121.5,25L12.5,25C5.6,25,0,19.4,0,12.5C0,5.6,5.6,0,12.5,0z" stroke-linejoin="round" fill="none" stroke-linecap="round" stroke="#ff7c78"/><text class="st6"><tspan textLength="110" y="17.45" x="11" style="white-space:pre">主动-被动复制模式</tspan></text></g><g ed:parentid="105" transform="matrix(1,0,0,1,389.64,203)" ed:height="25" id="121" ed:width="102.03999999999999"><path d="M12.5,0L89.5,0C96.4,0,102,5.6,102,12.5C102,19.4,96.4,25,89.5,25L12.5,25C5.6,25,0,19.4,0,12.5C0,5.6,5.6,0,12.5,0z" stroke-linejoin="round" fill="none" stroke-linecap="round" stroke="#ff7c78"/><text class="st6"><tspan textLength="78" y="17.45" x="11" style="white-space:pre">多主复制模式</tspan></text></g><g ed:parentid="105" transform="matrix(1,0,0,1,389.64,234.5)" ed:height="25" id="123" ed:width="134.04000000000002"><path d="M12.5,0L121.5,0C128.4,0,134,5.6,134,12.5C134,19.4,128.4,25,121.5,25L12.5,25C5.6,25,0,19.4,0,12.5C0,5.6,5.6,0,12.5,0z" stroke-linejoin="round" fill="none" stroke-linecap="round" stroke="#ff7c78"/><text class="st6"><tspan textLength="110" y="17.45" x="11" style="white-space:pre">主动-主动复制模式</tspan></text></g><g ed:parentid="107" transform="matrix(1,0,0,1,427.64,292.5)" ed:height="25" id="127" ed:width="102.03999999999999"><path d="M12.5,0L89.5,0C96.4,0,102,5.6,102,12.5C102,19.4,96.4,25,89.5,25L12.5,25C5.6,25,0,19.4,0,12.5C0,5.6,5.6,0,12.5,0z" stroke-linejoin="round" fill="none" stroke-linecap="round" stroke="#46ba7d"/><text class="st6"><tspan textLength="78" y="17.45" x="11" style="white-space:pre">资源封装模式</tspan></text></g><g ed:parentid="107" transform="matrix(1,0,0,1,427.64,324)" ed:height="25" id="129" ed:width="102.03999999999999"><path d="M12.5,0L89.5,0C96.4,0,102,5.6,102,12.5C102,19.4,96.4,25,89.5,25L12.5,25C5.6,25,0,19.4,0,12.5C0,5.6,5.6,0,12.5,0z" stroke-linejoin="round" fill="none" stroke-linecap="round" stroke="#46ba7d"/><text class="st6"><tspan textLength="78" y="17.45" x="11" style="white-space:pre">资源借贷模式</tspan></text></g><g ed:parentid="107" transform="matrix(1,0,0,1,427.64,355.5)" ed:height="25" id="131" ed:width="102.03999999999999"><path d="M12.5,0L89.5,0C96.4,0,102,5.6,102,12.5C102,19.4,96.4,25,89.5,25L12.5,25C5.6,25,0,19.4,0,12.5C0,5.6,5.6,0,12.5,0z" stroke-linejoin="round" fill="none" stroke-linecap="round" stroke="#46ba7d"/><text class="st6"><tspan textLength="78" y="17.45" x="11" style="white-space:pre">复杂命令模式</tspan></text></g><g ed:parentid="107" transform="matrix(1,0,0,1,427.64,387)" ed:height="25" id="133" ed:width="89.039999999999992"><path d="M12.5,0L76.5,0C83.4,0,89,5.6,89,12.5C89,19.4,83.4,25,76.5,25L12.5,25C5.6,25,0,19.4,0,12.5C0,5.6,5.6,0,12.5,0z" stroke-linejoin="round" fill="none" stroke-linecap="round" stroke="#46ba7d"/><text class="st6"><tspan textLength="65" y="17.45" x="11" style="white-space:pre">资源池模式</tspan></text></g><g ed:parentid="107" transform="matrix(1,0,0,1,427.64,418.5)" ed:height="25" id="135" ed:width="102.03999999999999"><path d="M12.5,0L89.5,0C96.4,0,102,5.6,102,12.5C102,19.4,96.4,25,89.5,25L12.5,25C5.6,25,0,19.4,0,12.5C0,5.6,5.6,0,12.5,0z" stroke-linejoin="round" fill="none" stroke-linecap="round" stroke="#46ba7d"/><text class="st6"><tspan textLength="78" y="17.45" x="11" style="white-space:pre">托管阻塞模式</tspan></text></g><g ed:parentid="102" transform="matrix(1,0,0,1,237.12,561.5)" ed:height="44" id="141" ed:width="144.51999999999998"><path d="M22,0L122.5,0C134.7,0,144.5,9.8,144.5,22C144.5,34.2,134.7,44,122.5,44L22,44C9.8,44,0,34.2,0,22C0,9.8,9.8,0,22,0z" stroke-width="3" stroke-linejoin="round" fill="#ffffff" stroke-linecap="round" stroke="#c393e1"/><text class="st5"><tspan textLength="95" y="28.45" x="25" style="white-space:pre">消息流模式</tspan></text></g><g ed:parentid="141" transform="matrix(1,0,0,1,408.64,476.5)" ed:height="25" id="143" ed:width="108.03999999999999"><path d="M12.5,0L95.5,0C102.4,0,108,5.6,108,12.5C108,19.4,102.4,25,95.5,25L12.5,25C5.6,25,0,19.4,0,12.5C0,5.6,5.6,0,12.5,0z" stroke-linejoin="round" fill="none" stroke-linecap="round" stroke="#c393e1"/><text class="st6"><tspan textLength="84" y="17.45" x="11" style="white-space:pre">请求-响应模式</tspan></text></g><g ed:parentid="141" transform="matrix(1,0,0,1,408.64,508)" ed:height="25" id="145" ed:width="115.03999999999999"><path d="M12.5,0L102.5,0C109.4,0,115,5.6,115,12.5C115,19.4,109.4,25,102.5,25L12.5,25C5.6,25,0,19.4,0,12.5C0,5.6,5.6,0,12.5,0z" stroke-linejoin="round" fill="none" stroke-linecap="round" stroke="#c393e1"/><text class="st6"><tspan textLength="91" y="17.45" x="11" style="white-space:pre">消息自包含模式</tspan></text></g><g ed:parentid="141" transform="matrix(1,0,0,1,408.64,539.5)" ed:height="25" id="149" ed:width="76.039999999999992"><path d="M12.5,0L63.5,0C70.4,0,76,5.6,76,12.5C76,19.4,70.4,25,63.5,25L12.5,25C5.6,25,0,19.4,0,12.5C0,5.6,5.6,0,12.5,0z" stroke-linejoin="round" fill="none" stroke-linecap="round" stroke="#c393e1"/><text class="st6"><tspan textLength="52" y="17.45" x="11" style="white-space:pre">询问模式</tspan></text></g><g ed:parentid="141" transform="matrix(1,0,0,1,408.64,571)" ed:height="25" id="151" ed:width="89.039999999999992"><path d="M12.5,0L76.5,0C83.4,0,89,5.6,89,12.5C89,19.4,83.4,25,76.5,25L12.5,25C5.6,25,0,19.4,0,12.5C0,5.6,5.6,0,12.5,0z" stroke-linejoin="round" fill="none" stroke-linecap="round" stroke="#c393e1"/><text class="st6"><tspan textLength="65" y="17.45" x="11" style="white-space:pre">转发流模式</tspan></text></g><g ed:parentid="141" transform="matrix(1,0,0,1,408.64,602.5)" ed:height="25" id="153" ed:width="89.039999999999992"><path d="M12.5,0L76.5,0C83.4,0,89,5.6,89,12.5C89,19.4,83.4,25,76.5,25L12.5,25C5.6,25,0,19.4,0,12.5C0,5.6,5.6,0,12.5,0z" stroke-linejoin="round" fill="none" stroke-linecap="round" stroke="#c393e1"/><text class="st6"><tspan textLength="65" y="17.45" x="11" style="white-space:pre">聚合器模式</tspan></text></g><g ed:parentid="141" transform="matrix(1,0,0,1,408.64,634)" ed:height="25" id="155" ed:width="102.03999999999999"><path d="M12.5,0L89.5,0C96.4,0,102,5.6,102,12.5C102,19.4,96.4,25,89.5,25L12.5,25C5.6,25,0,19.4,0,12.5C0,5.6,5.6,0,12.5,0z" stroke-linejoin="round" fill="none" stroke-linecap="round" stroke="#c393e1"/><text class="st6"><tspan textLength="78" y="17.45" x="11" style="white-space:pre">事务序列模式</tspan></text></g><g ed:parentid="141" transform="matrix(1,0,0,1,408.64,665.5)" ed:height="25" id="157" ed:width="102.03999999999999"><path d="M12.5,0L89.5,0C96.4,0,102,5.6,102,12.5C102,19.4,96.4,25,89.5,25L12.5,25C5.6,25,0,19.4,0,12.5C0,5.6,5.6,0,12.5,0z" stroke-linejoin="round" fill="none" stroke-linecap="round" stroke="#c393e1"/><text class="st6"><tspan textLength="78" y="17.45" x="11" style="white-space:pre">可靠投递模式</tspan></text></g><g ed:parentid="102" transform="matrix(1,0,0,1,237.12,761.25)" ed:height="44" id="159" ed:width="163.51999999999998"><path d="M22,0L141.5,0C153.7,0,163.5,9.8,163.5,22C163.5,34.2,153.7,44,141.5,44L22,44C9.8,44,0,34.2,0,22C0,9.8,9.8,0,22,0z" stroke-width="3" stroke-linejoin="round" fill="#ffffff" stroke-linecap="round" stroke="#2faea9"/><text class="st5"><tspan textLength="114" y="28.45" x="25" style="white-space:pre">流量控制模式</tspan></text></g><g ed:parentid="159" transform="matrix(1,0,0,1,427.64,723.5)" ed:height="25" id="161" ed:width="76.039999999999992"><path d="M12.5,0L63.5,0C70.4,0,76,5.6,76,12.5C76,19.4,70.4,25,63.5,25L12.5,25C5.6,25,0,19.4,0,12.5C0,5.6,5.6,0,12.5,0z" stroke-linejoin="round" fill="none" stroke-linecap="round" stroke="#2faea9"/><text class="st6"><tspan textLength="52" y="17.45" x="11" style="white-space:pre">拉取模式</tspan></text></g><g ed:parentid="159" transform="matrix(1,0,0,1,427.64,755)" ed:height="25" id="163" ed:width="102.03999999999999"><path d="M12.5,0L89.5,0C96.4,0,102,5.6,102,12.5C102,19.4,96.4,25,89.5,25L12.5,25C5.6,25,0,19.4,0,12.5C0,5.6,5.6,0,12.5,0z" stroke-linejoin="round" fill="none" stroke-linecap="round" stroke="#2faea9"/><text class="st6"><tspan textLength="78" y="17.45" x="11" style="white-space:pre">托管队列模式</tspan></text></g><g ed:parentid="159" transform="matrix(1,0,0,1,427.64,786.5)" ed:height="25" id="165" ed:width="76.039999999999992"><path d="M12.5,0L63.5,0C70.4,0,76,5.6,76,12.5C76,19.4,70.4,25,63.5,25L12.5,25C5.6,25,0,19.4,0,12.5C0,5.6,5.6,0,12.5,0z" stroke-linejoin="round" fill="none" stroke-linecap="round" stroke="#2faea9"/><text class="st6"><tspan textLength="52" y="17.45" x="11" style="white-space:pre">丢弃模式</tspan></text></g><g ed:parentid="159" transform="matrix(1,0,0,1,427.64,818)" ed:height="25" id="167" ed:width="76.039999999999992"><path d="M12.5,0L63.5,0C70.4,0,76,5.6,76,12.5C76,19.4,70.4,25,63.5,25L12.5,25C5.6,25,0,19.4,0,12.5C0,5.6,5.6,0,12.5,0z" stroke-linejoin="round" fill="none" stroke-linecap="round" stroke="#2faea9"/><text class="st6"><tspan textLength="52" y="17.45" x="11" style="white-space:pre">限流模式</tspan></text></g><g ed:parentid="102" transform="matrix(1,0,0,1,237.12,913.75)" ed:height="44" id="169" ed:width="239.51999999999998"><path d="M22,0L217.5,0C229.7,0,239.5,9.8,239.5,22C239.5,34.2,229.7,44,217.5,44L22,44C9.8,44,0,34.2,0,22C0,9.8,9.8,0,22,0z" stroke-width="3" stroke-linejoin="round" fill="#ffffff" stroke-linecap="round" stroke="#e85464"/><text class="st5"><tspan textLength="190" y="28.45" x="25" style="white-space:pre">状态管理和持久化模式</tspan></text></g><g ed:parentid="169" transform="matrix(1,0,0,1,503.64,876)" ed:height="25" id="171" ed:width="102.03999999999999"><path d="M12.5,0L89.5,0C96.4,0,102,5.6,102,12.5C102,19.4,96.4,25,89.5,25L12.5,25C5.6,25,0,19.4,0,12.5C0,5.6,5.6,0,12.5,0z" stroke-linejoin="round" fill="none" stroke-linecap="round" stroke="#e85464"/><text class="st6"><tspan textLength="78" y="17.45" x="11" style="white-space:pre">领域对象模式</tspan></text></g><g ed:parentid="169" transform="matrix(1,0,0,1,503.64,907.5)" ed:height="25" id="173" ed:width="76.039999999999992"><path d="M12.5,0L63.5,0C70.4,0,76,5.6,76,12.5C76,19.4,70.4,25,63.5,25L12.5,25C5.6,25,0,19.4,0,12.5C0,5.6,5.6,0,12.5,0z" stroke-linejoin="round" fill="none" stroke-linecap="round" stroke="#e85464"/><text class="st6"><tspan textLength="52" y="17.45" x="11" style="white-space:pre">分片模式</tspan></text></g><g ed:parentid="169" transform="matrix(1,0,0,1,503.64,939)" ed:height="25" id="175" ed:width="102.03999999999999"><path d="M12.5,0L89.5,0C96.4,0,102,5.6,102,12.5C102,19.4,96.4,25,89.5,25L12.5,25C5.6,25,0,19.4,0,12.5C0,5.6,5.6,0,12.5,0z" stroke-linejoin="round" fill="none" stroke-linecap="round" stroke="#e85464"/><text class="st6"><tspan textLength="78" y="17.45" x="11" style="white-space:pre">事件溯源模式</tspan></text></g><g ed:parentid="169" transform="matrix(1,0,0,1,503.64,970.5)" ed:height="25" id="177" ed:width="89.039999999999992"><path d="M12.5,0L76.5,0C83.4,0,89,5.6,89,12.5C89,19.4,83.4,25,76.5,25L12.5,25C5.6,25,0,19.4,0,12.5C0,5.6,5.6,0,12.5,0z" stroke-linejoin="round" fill="none" stroke-linecap="round" stroke="#e85464"/><text class="st6"><tspan textLength="65" y="17.45" x="11" style="white-space:pre">事件流模式</tspan></text></g></svg>