<?xml version="1.0" encoding="us-ascii" standalone="no"?><svg xmlns="http://www.w3.org/2000/svg" xmlns:xlink="http://www.w3.org/1999/xlink" contentStyleType="text/css" height="601px" preserveAspectRatio="none" style="width:510px;height:601px;background:#FFFFFF;" version="1.1" viewBox="0 0 510 601" width="510px" zoomAndPan="magnify"><defs/><g><!--class Iterable--><g id="elem_Iterable"><rect codeLine="3" fill="#F1F1F1" height="32" id="Iterable" rx="2.5" ry="2.5" style="stroke:#181818;stroke-width:0.5;" width="91" x="159.25" y="10"/><ellipse cx="174.25" cy="26" fill="#B4A7E5" rx="11" ry="11" style="stroke:#181818;stroke-width:1.0;"/><path d="M175.2031,22.6406 L175.2031,29.2969 L176.9219,29.2969 Q177.5313,29.2969 177.7969,29.5313 Q178.0625,29.7656 178.0625,30.1563 Q178.0625,30.5313 177.7969,30.7656 Q177.5313,31 176.9219,31 L171.7813,31 Q171.1719,31 170.9063,30.7656 Q170.6406,30.5313 170.6406,30.1406 Q170.6406,29.7656 170.9063,29.5313 Q171.1719,29.2969 171.7813,29.2969 L173.5,29.2969 L173.5,22.6406 L171.7813,22.6406 Q171.1719,22.6406 170.9063,22.4063 Q170.6406,22.1719 170.6406,21.7813 Q170.6406,21.4063 170.9063,21.1719 Q171.1719,20.9375 171.7813,20.9375 L176.9219,20.9375 Q177.5313,20.9375 177.7969,21.1719 Q178.0625,21.4063 178.0625,21.7813 Q178.0625,22.1719 177.7969,22.4063 Q177.5313,22.6406 176.9219,22.6406 L175.2031,22.6406 Z " fill="#000000"/><text fill="#000000" font-family="sans-serif" font-size="14" font-style="italic" lengthAdjust="spacing" textLength="48" x="188.25" y="31.7285">Iterable</text><rect fill="#FFFFFF" height="17.0938" style="stroke:#181818;stroke-width:1.0;stroke-dasharray:2.0,2.0;" width="9" x="244.25" y="7"/><text fill="#000000" font-family="sans-serif" font-size="12" font-style="italic" lengthAdjust="spacing" textLength="7" x="245.25" y="20.457">T</text></g><!--class Collection--><g id="elem_Collection"><rect codeLine="4" fill="#F1F1F1" height="32" id="Collection" rx="2.5" ry="2.5" style="stroke:#181818;stroke-width:0.5;" width="106" x="151.75" y="102"/><ellipse cx="166.75" cy="118" fill="#B4A7E5" rx="11" ry="11" style="stroke:#181818;stroke-width:1.0;"/><path d="M167.7031,114.6406 L167.7031,121.2969 L169.4219,121.2969 Q170.0313,121.2969 170.2969,121.5313 Q170.5625,121.7656 170.5625,122.1563 Q170.5625,122.5313 170.2969,122.7656 Q170.0313,123 169.4219,123 L164.2813,123 Q163.6719,123 163.4063,122.7656 Q163.1406,122.5313 163.1406,122.1406 Q163.1406,121.7656 163.4063,121.5313 Q163.6719,121.2969 164.2813,121.2969 L166,121.2969 L166,114.6406 L164.2813,114.6406 Q163.6719,114.6406 163.4063,114.4063 Q163.1406,114.1719 163.1406,113.7813 Q163.1406,113.4063 163.4063,113.1719 Q163.6719,112.9375 164.2813,112.9375 L169.4219,112.9375 Q170.0313,112.9375 170.2969,113.1719 Q170.5625,113.4063 170.5625,113.7813 Q170.5625,114.1719 170.2969,114.4063 Q170.0313,114.6406 169.4219,114.6406 L167.7031,114.6406 Z " fill="#000000"/><text fill="#000000" font-family="sans-serif" font-size="14" font-style="italic" lengthAdjust="spacing" textLength="62" x="180.75" y="123.7285">Collection</text><rect fill="#FFFFFF" height="17.0938" style="stroke:#181818;stroke-width:1.0;stroke-dasharray:2.0,2.0;" width="10" x="250.75" y="99"/><text fill="#000000" font-family="sans-serif" font-size="12" font-style="italic" lengthAdjust="spacing" textLength="8" x="251.75" y="112.457">E</text></g><!--class SequencedCollection--><g id="elem_SequencedCollection"><rect codeLine="5" fill="#F1F1F1" height="32" id="SequencedCollection" rx="2.5" ry="2.5" style="stroke:#181818;stroke-width:0.5;" width="178" x="44.75" y="194"/><ellipse cx="59.75" cy="210" fill="#B4A7E5" rx="11" ry="11" style="stroke:#181818;stroke-width:1.0;"/><path d="M60.7031,206.6406 L60.7031,213.2969 L62.4219,213.2969 Q63.0313,213.2969 63.2969,213.5313 Q63.5625,213.7656 63.5625,214.1563 Q63.5625,214.5313 63.2969,214.7656 Q63.0313,215 62.4219,215 L57.2813,215 Q56.6719,215 56.4063,214.7656 Q56.1406,214.5313 56.1406,214.1406 Q56.1406,213.7656 56.4063,213.5313 Q56.6719,213.2969 57.2813,213.2969 L59,213.2969 L59,206.6406 L57.2813,206.6406 Q56.6719,206.6406 56.4063,206.4063 Q56.1406,206.1719 56.1406,205.7813 Q56.1406,205.4063 56.4063,205.1719 Q56.6719,204.9375 57.2813,204.9375 L62.4219,204.9375 Q63.0313,204.9375 63.2969,205.1719 Q63.5625,205.4063 63.5625,205.7813 Q63.5625,206.1719 63.2969,206.4063 Q63.0313,206.6406 62.4219,206.6406 L60.7031,206.6406 Z " fill="#000000"/><text fill="#000000" font-family="sans-serif" font-size="14" font-style="italic" lengthAdjust="spacing" textLength="134" x="73.75" y="215.7285">SequencedCollection</text><rect fill="#FFFFFF" height="17.0938" style="stroke:#181818;stroke-width:1.0;stroke-dasharray:2.0,2.0;" width="10" x="215.75" y="191"/><text fill="#000000" font-family="sans-serif" font-size="12" font-style="italic" lengthAdjust="spacing" textLength="8" x="216.75" y="204.457">E</text></g><!--class List--><g id="elem_List"><rect codeLine="6" fill="#F1F1F1" height="32" id="List" rx="2.5" ry="2.5" style="stroke:#181818;stroke-width:0.5;" width="66" x="98.75" y="286"/><ellipse cx="113.75" cy="302" fill="#B4A7E5" rx="11" ry="11" style="stroke:#181818;stroke-width:1.0;"/><path d="M114.7031,298.6406 L114.7031,305.2969 L116.4219,305.2969 Q117.0313,305.2969 117.2969,305.5313 Q117.5625,305.7656 117.5625,306.1563 Q117.5625,306.5313 117.2969,306.7656 Q117.0313,307 116.4219,307 L111.2813,307 Q110.6719,307 110.4063,306.7656 Q110.1406,306.5313 110.1406,306.1406 Q110.1406,305.7656 110.4063,305.5313 Q110.6719,305.2969 111.2813,305.2969 L113,305.2969 L113,298.6406 L111.2813,298.6406 Q110.6719,298.6406 110.4063,298.4063 Q110.1406,298.1719 110.1406,297.7813 Q110.1406,297.4063 110.4063,297.1719 Q110.6719,296.9375 111.2813,296.9375 L116.4219,296.9375 Q117.0313,296.9375 117.2969,297.1719 Q117.5625,297.4063 117.5625,297.7813 Q117.5625,298.1719 117.2969,298.4063 Q117.0313,298.6406 116.4219,298.6406 L114.7031,298.6406 Z " fill="#000000"/><text fill="#000000" font-family="sans-serif" font-size="14" font-style="italic" lengthAdjust="spacing" textLength="22" x="127.75" y="307.7285">List</text><rect fill="#FFFFFF" height="17.0938" style="stroke:#181818;stroke-width:1.0;stroke-dasharray:2.0,2.0;" width="10" x="157.75" y="283"/><text fill="#000000" font-family="sans-serif" font-size="12" font-style="italic" lengthAdjust="spacing" textLength="8" x="158.75" y="296.457">E</text></g><!--class AbstractCollection--><g id="elem_AbstractCollection"><rect codeLine="8" fill="#F1F1F1" height="32" id="AbstractCollection" rx="2.5" ry="2.5" style="stroke:#181818;stroke-width:0.5;" width="158" x="199.75" y="286"/><ellipse cx="214.75" cy="302" fill="#A9DCDF" rx="11" ry="11" style="stroke:#181818;stroke-width:1.0;"/><path d="M216.9375,303.7656 L212.7969,303.7656 L212.375,304.7969 L212.7969,304.7969 Q213.4063,304.7969 213.6719,305.0313 Q213.9375,305.2656 213.9375,305.6563 Q213.9375,306.0313 213.6719,306.2656 Q213.4063,306.5 212.7969,306.5 L210.5,306.5 Q209.8906,306.5 209.6406,306.2656 Q209.375,306.0313 209.375,305.6406 Q209.375,305.2656 209.6563,305.0313 Q209.9219,304.7813 210.5469,304.7969 L213.2188,298.1406 L212.1094,298.1406 Q211.5,298.1406 211.2344,297.9063 Q210.9688,297.6719 210.9688,297.2813 Q210.9688,296.9063 211.2344,296.6719 Q211.5,296.4375 212.1094,296.4375 L215.7813,296.4375 L219.1719,304.7969 Q219.7656,304.7969 219.9531,304.9375 Q220.3438,305.2031 220.3438,305.6563 Q220.3438,306.0313 220.0781,306.2656 Q219.8281,306.5 219.2188,306.5 L216.9219,306.5 Q216.3125,306.5 216.0469,306.2656 Q215.7813,306.0313 215.7813,305.6406 Q215.7813,305.2656 216.0469,305.0313 Q216.3125,304.7969 216.9219,304.7969 L217.3438,304.7969 L216.9375,303.7656 Z M216.2188,302.0625 L214.8594,298.6875 L213.4844,302.0625 L216.2188,302.0625 Z " fill="#000000"/><text fill="#000000" font-family="sans-serif" font-size="14" font-style="italic" lengthAdjust="spacing" textLength="114" x="228.75" y="307.7285">AbstractCollection</text><rect fill="#FFFFFF" height="17.0938" style="stroke:#181818;stroke-width:1.0;stroke-dasharray:2.0,2.0;" width="10" x="350.75" y="283"/><text fill="#000000" font-family="sans-serif" font-size="12" font-style="italic" lengthAdjust="spacing" textLength="8" x="351.75" y="296.457">E</text></g><!--class AbstractList--><g id="elem_AbstractList"><rect codeLine="9" fill="#F1F1F1" height="32" id="AbstractList" rx="2.5" ry="2.5" style="stroke:#181818;stroke-width:0.5;" width="118" x="219.75" y="378"/><ellipse cx="234.75" cy="394" fill="#A9DCDF" rx="11" ry="11" style="stroke:#181818;stroke-width:1.0;"/><path d="M236.9375,395.7656 L232.7969,395.7656 L232.375,396.7969 L232.7969,396.7969 Q233.4063,396.7969 233.6719,397.0313 Q233.9375,397.2656 233.9375,397.6563 Q233.9375,398.0313 233.6719,398.2656 Q233.4063,398.5 232.7969,398.5 L230.5,398.5 Q229.8906,398.5 229.6406,398.2656 Q229.375,398.0313 229.375,397.6406 Q229.375,397.2656 229.6563,397.0313 Q229.9219,396.7813 230.5469,396.7969 L233.2188,390.1406 L232.1094,390.1406 Q231.5,390.1406 231.2344,389.9063 Q230.9688,389.6719 230.9688,389.2813 Q230.9688,388.9063 231.2344,388.6719 Q231.5,388.4375 232.1094,388.4375 L235.7813,388.4375 L239.1719,396.7969 Q239.7656,396.7969 239.9531,396.9375 Q240.3438,397.2031 240.3438,397.6563 Q240.3438,398.0313 240.0781,398.2656 Q239.8281,398.5 239.2188,398.5 L236.9219,398.5 Q236.3125,398.5 236.0469,398.2656 Q235.7813,398.0313 235.7813,397.6406 Q235.7813,397.2656 236.0469,397.0313 Q236.3125,396.7969 236.9219,396.7969 L237.3438,396.7969 L236.9375,395.7656 Z M236.2188,394.0625 L234.8594,390.6875 L233.4844,394.0625 L236.2188,394.0625 Z " fill="#000000"/><text fill="#000000" font-family="sans-serif" font-size="14" font-style="italic" lengthAdjust="spacing" textLength="74" x="248.75" y="399.7285">AbstractList</text><rect fill="#FFFFFF" height="17.0938" style="stroke:#181818;stroke-width:1.0;stroke-dasharray:2.0,2.0;" width="10" x="330.75" y="375"/><text fill="#000000" font-family="sans-serif" font-size="12" font-style="italic" lengthAdjust="spacing" textLength="8" x="331.75" y="388.457">E</text></g><!--class AbstractSequentialList--><g id="elem_AbstractSequentialList"><rect codeLine="10" fill="#F1F1F1" height="32" id="AbstractSequentialList" rx="2.5" ry="2.5" style="stroke:#181818;stroke-width:0.5;" width="185" x="194.25" y="470"/><ellipse cx="209.25" cy="486" fill="#A9DCDF" rx="11" ry="11" style="stroke:#181818;stroke-width:1.0;"/><path d="M211.4375,487.7656 L207.2969,487.7656 L206.875,488.7969 L207.2969,488.7969 Q207.9063,488.7969 208.1719,489.0313 Q208.4375,489.2656 208.4375,489.6563 Q208.4375,490.0313 208.1719,490.2656 Q207.9063,490.5 207.2969,490.5 L205,490.5 Q204.3906,490.5 204.1406,490.2656 Q203.875,490.0313 203.875,489.6406 Q203.875,489.2656 204.1563,489.0313 Q204.4219,488.7813 205.0469,488.7969 L207.7188,482.1406 L206.6094,482.1406 Q206,482.1406 205.7344,481.9063 Q205.4688,481.6719 205.4688,481.2813 Q205.4688,480.9063 205.7344,480.6719 Q206,480.4375 206.6094,480.4375 L210.2813,480.4375 L213.6719,488.7969 Q214.2656,488.7969 214.4531,488.9375 Q214.8438,489.2031 214.8438,489.6563 Q214.8438,490.0313 214.5781,490.2656 Q214.3281,490.5 213.7188,490.5 L211.4219,490.5 Q210.8125,490.5 210.5469,490.2656 Q210.2813,490.0313 210.2813,489.6406 Q210.2813,489.2656 210.5469,489.0313 Q210.8125,488.7969 211.4219,488.7969 L211.8438,488.7969 L211.4375,487.7656 Z M210.7188,486.0625 L209.3594,482.6875 L207.9844,486.0625 L210.7188,486.0625 Z " fill="#000000"/><text fill="#000000" font-family="sans-serif" font-size="14" font-style="italic" lengthAdjust="spacing" textLength="141" x="223.25" y="491.7285">AbstractSequentialList</text><rect fill="#FFFFFF" height="17.0938" style="stroke:#181818;stroke-width:1.0;stroke-dasharray:2.0,2.0;" width="10" x="372.25" y="467"/><text fill="#000000" font-family="sans-serif" font-size="12" font-style="italic" lengthAdjust="spacing" textLength="8" x="373.25" y="480.457">E</text></g><!--class ArrayList--><g id="elem_ArrayList"><rect codeLine="12" fill="#F1F1F1" height="32" id="ArrayList" rx="2.5" ry="2.5" style="stroke:#181818;stroke-width:0.5;" width="100" x="58.75" y="470"/><ellipse cx="73.75" cy="486" fill="#ADD1B2" rx="11" ry="11" style="stroke:#181818;stroke-width:1.0;"/><path d="M76.5156,481.875 Q76.6719,481.6563 76.8594,481.5469 Q77.0469,481.4375 77.2656,481.4375 Q77.6406,481.4375 77.875,481.7031 Q78.1094,481.9531 78.1094,482.5625 L78.1094,484.0156 Q78.1094,484.625 77.875,484.8906 Q77.6406,485.1563 77.2656,485.1563 Q76.9219,485.1563 76.7188,484.9531 Q76.5156,484.7656 76.4063,484.25 Q76.3594,483.8906 76.1719,483.7031 Q75.8438,483.3281 75.2344,483.1094 Q74.625,482.8906 74,482.8906 Q73.2344,482.8906 72.5938,483.2188 Q71.9688,483.5469 71.4688,484.2969 Q70.9844,485.0469 70.9844,486.0781 L70.9844,487.1719 Q70.9844,488.4063 71.875,489.2344 Q72.7656,490.0469 74.3594,490.0469 Q75.2969,490.0469 75.9531,489.7969 Q76.3438,489.6406 76.7656,489.2031 Q77.0313,488.9375 77.1719,488.8594 Q77.3281,488.7813 77.5313,488.7813 Q77.8594,488.7813 78.1094,489.0469 Q78.375,489.2969 78.375,489.6406 Q78.375,489.9844 78.0313,490.3906 Q77.5313,490.9688 76.7344,491.2969 Q75.6563,491.75 74.3594,491.75 Q72.8438,491.75 71.6406,491.125 Q70.6563,490.625 69.9688,489.5625 Q69.2813,488.4844 69.2813,487.2031 L69.2813,486.0469 Q69.2813,484.7188 69.8906,483.5781 Q70.5156,482.4219 71.6094,481.8125 Q72.7031,481.1875 73.9375,481.1875 Q74.6719,481.1875 75.3125,481.3594 Q75.9688,481.5156 76.5156,481.875 Z " fill="#000000"/><text fill="#000000" font-family="sans-serif" font-size="14" lengthAdjust="spacing" textLength="56" x="87.75" y="491.7285">ArrayList</text><rect fill="#FFFFFF" height="17.0938" style="stroke:#181818;stroke-width:1.0;stroke-dasharray:2.0,2.0;" width="10" x="151.75" y="467"/><text fill="#000000" font-family="sans-serif" font-size="12" font-style="italic" lengthAdjust="spacing" textLength="8" x="152.75" y="480.457">E</text></g><!--class Vector--><g id="elem_Vector"><rect codeLine="13" fill="#F1F1F1" height="32" id="Vector" rx="2.5" ry="2.5" style="stroke:#181818;stroke-width:0.5;" width="85" x="414.25" y="470"/><ellipse cx="429.25" cy="486" fill="#ADD1B2" rx="11" ry="11" style="stroke:#181818;stroke-width:1.0;"/><path d="M432.0156,481.875 Q432.1719,481.6563 432.3594,481.5469 Q432.5469,481.4375 432.7656,481.4375 Q433.1406,481.4375 433.375,481.7031 Q433.6094,481.9531 433.6094,482.5625 L433.6094,484.0156 Q433.6094,484.625 433.375,484.8906 Q433.1406,485.1563 432.7656,485.1563 Q432.4219,485.1563 432.2188,484.9531 Q432.0156,484.7656 431.9063,484.25 Q431.8594,483.8906 431.6719,483.7031 Q431.3438,483.3281 430.7344,483.1094 Q430.125,482.8906 429.5,482.8906 Q428.7344,482.8906 428.0938,483.2188 Q427.4688,483.5469 426.9688,484.2969 Q426.4844,485.0469 426.4844,486.0781 L426.4844,487.1719 Q426.4844,488.4063 427.375,489.2344 Q428.2656,490.0469 429.8594,490.0469 Q430.7969,490.0469 431.4531,489.7969 Q431.8438,489.6406 432.2656,489.2031 Q432.5313,488.9375 432.6719,488.8594 Q432.8281,488.7813 433.0313,488.7813 Q433.3594,488.7813 433.6094,489.0469 Q433.875,489.2969 433.875,489.6406 Q433.875,489.9844 433.5313,490.3906 Q433.0313,490.9688 432.2344,491.2969 Q431.1563,491.75 429.8594,491.75 Q428.3438,491.75 427.1406,491.125 Q426.1563,490.625 425.4688,489.5625 Q424.7813,488.4844 424.7813,487.2031 L424.7813,486.0469 Q424.7813,484.7188 425.3906,483.5781 Q426.0156,482.4219 427.1094,481.8125 Q428.2031,481.1875 429.4375,481.1875 Q430.1719,481.1875 430.8125,481.3594 Q431.4688,481.5156 432.0156,481.875 Z " fill="#000000"/><text fill="#000000" font-family="sans-serif" font-size="14" lengthAdjust="spacing" textLength="41" x="443.25" y="491.7285">Vector</text><rect fill="#FFFFFF" height="17.0938" style="stroke:#181818;stroke-width:1.0;stroke-dasharray:2.0,2.0;" width="10" x="492.25" y="467"/><text fill="#000000" font-family="sans-serif" font-size="12" font-style="italic" lengthAdjust="spacing" textLength="8" x="493.25" y="480.457">E</text></g><!--class Stack--><g id="elem_Stack"><rect codeLine="14" fill="#F1F1F1" height="32" id="Stack" rx="2.5" ry="2.5" style="stroke:#181818;stroke-width:0.5;" width="79" x="417.25" y="562"/><ellipse cx="432.25" cy="578" fill="#ADD1B2" rx="11" ry="11" style="stroke:#181818;stroke-width:1.0;"/><path d="M435.0156,573.875 Q435.1719,573.6563 435.3594,573.5469 Q435.5469,573.4375 435.7656,573.4375 Q436.1406,573.4375 436.375,573.7031 Q436.6094,573.9531 436.6094,574.5625 L436.6094,576.0156 Q436.6094,576.625 436.375,576.8906 Q436.1406,577.1563 435.7656,577.1563 Q435.4219,577.1563 435.2188,576.9531 Q435.0156,576.7656 434.9063,576.25 Q434.8594,575.8906 434.6719,575.7031 Q434.3438,575.3281 433.7344,575.1094 Q433.125,574.8906 432.5,574.8906 Q431.7344,574.8906 431.0938,575.2188 Q430.4688,575.5469 429.9688,576.2969 Q429.4844,577.0469 429.4844,578.0781 L429.4844,579.1719 Q429.4844,580.4063 430.375,581.2344 Q431.2656,582.0469 432.8594,582.0469 Q433.7969,582.0469 434.4531,581.7969 Q434.8438,581.6406 435.2656,581.2031 Q435.5313,580.9375 435.6719,580.8594 Q435.8281,580.7813 436.0313,580.7813 Q436.3594,580.7813 436.6094,581.0469 Q436.875,581.2969 436.875,581.6406 Q436.875,581.9844 436.5313,582.3906 Q436.0313,582.9688 435.2344,583.2969 Q434.1563,583.75 432.8594,583.75 Q431.3438,583.75 430.1406,583.125 Q429.1563,582.625 428.4688,581.5625 Q427.7813,580.4844 427.7813,579.2031 L427.7813,578.0469 Q427.7813,576.7188 428.3906,575.5781 Q429.0156,574.4219 430.1094,573.8125 Q431.2031,573.1875 432.4375,573.1875 Q433.1719,573.1875 433.8125,573.3594 Q434.4688,573.5156 435.0156,573.875 Z " fill="#000000"/><text fill="#000000" font-family="sans-serif" font-size="14" lengthAdjust="spacing" textLength="35" x="446.25" y="583.7285">Stack</text><rect fill="#FFFFFF" height="17.0938" style="stroke:#181818;stroke-width:1.0;stroke-dasharray:2.0,2.0;" width="10" x="489.25" y="559"/><text fill="#000000" font-family="sans-serif" font-size="12" font-style="italic" lengthAdjust="spacing" textLength="8" x="490.25" y="572.457">E</text></g><!--class LinkedList--><g id="elem_LinkedList"><rect codeLine="15" fill="#F1F1F1" height="32" id="LinkedList" rx="2.5" ry="2.5" style="stroke:#181818;stroke-width:0.5;" width="108" x="92.75" y="562"/><ellipse cx="107.75" cy="578" fill="#ADD1B2" rx="11" ry="11" style="stroke:#181818;stroke-width:1.0;"/><path d="M110.5156,573.875 Q110.6719,573.6563 110.8594,573.5469 Q111.0469,573.4375 111.2656,573.4375 Q111.6406,573.4375 111.875,573.7031 Q112.1094,573.9531 112.1094,574.5625 L112.1094,576.0156 Q112.1094,576.625 111.875,576.8906 Q111.6406,577.1563 111.2656,577.1563 Q110.9219,577.1563 110.7188,576.9531 Q110.5156,576.7656 110.4063,576.25 Q110.3594,575.8906 110.1719,575.7031 Q109.8438,575.3281 109.2344,575.1094 Q108.625,574.8906 108,574.8906 Q107.2344,574.8906 106.5938,575.2188 Q105.9688,575.5469 105.4688,576.2969 Q104.9844,577.0469 104.9844,578.0781 L104.9844,579.1719 Q104.9844,580.4063 105.875,581.2344 Q106.7656,582.0469 108.3594,582.0469 Q109.2969,582.0469 109.9531,581.7969 Q110.3438,581.6406 110.7656,581.2031 Q111.0313,580.9375 111.1719,580.8594 Q111.3281,580.7813 111.5313,580.7813 Q111.8594,580.7813 112.1094,581.0469 Q112.375,581.2969 112.375,581.6406 Q112.375,581.9844 112.0313,582.3906 Q111.5313,582.9688 110.7344,583.2969 Q109.6563,583.75 108.3594,583.75 Q106.8438,583.75 105.6406,583.125 Q104.6563,582.625 103.9688,581.5625 Q103.2813,580.4844 103.2813,579.2031 L103.2813,578.0469 Q103.2813,576.7188 103.8906,575.5781 Q104.5156,574.4219 105.6094,573.8125 Q106.7031,573.1875 107.9375,573.1875 Q108.6719,573.1875 109.3125,573.3594 Q109.9688,573.5156 110.5156,573.875 Z " fill="#000000"/><text fill="#000000" font-family="sans-serif" font-size="14" lengthAdjust="spacing" textLength="64" x="121.75" y="583.7285">LinkedList</text><rect fill="#FFFFFF" height="17.0938" style="stroke:#181818;stroke-width:1.0;stroke-dasharray:2.0,2.0;" width="10" x="193.75" y="559"/><text fill="#000000" font-family="sans-serif" font-size="12" font-style="italic" lengthAdjust="spacing" textLength="8" x="194.75" y="572.457">E</text></g><!--reverse link Iterable to Collection--><g id="link_Iterable_Collection"><path d="M204.75,60.27 C204.75,76.92 204.75,85.4 204.75,101.96 " fill="none" id="Iterable-backto-Collection" style="stroke:#181818;stroke-width:1.0;"/><polygon fill="none" points="204.75,42.27,198.75,60.27,210.75,60.27,204.75,42.27" style="stroke:#181818;stroke-width:1.0;"/></g><!--reverse link Collection to SequencedCollection--><g id="link_Collection_SequencedCollection"><path d="M181.5541,148.404 C168.4241,165.054 158.68,177.4 145.61,193.96 " fill="none" id="Collection-backto-SequencedCollection" style="stroke:#181818;stroke-width:1.0;"/><polygon fill="none" points="192.7,134.27,176.8428,144.6887,186.2654,152.1193,192.7,134.27" style="stroke:#181818;stroke-width:1.0;"/></g><!--reverse link SequencedCollection to List--><g id="link_SequencedCollection_List"><path d="M133.0101,244.2656 C132.6401,260.9156 132.45,269.4 132.08,285.96 " fill="none" id="SequencedCollection-backto-List" style="stroke:#181818;stroke-width:1.0;"/><polygon fill="none" points="133.41,226.27,127.0116,244.1323,139.0086,244.3989,133.41,226.27" style="stroke:#181818;stroke-width:1.0;"/></g><!--reverse link Collection to AbstractCollection--><g id="link_Collection_AbstractCollection"><path d="M220.1649,150.2116 C227.5349,165.2416 230.99,172.9 239.75,194 C253.15,226.33 266.66,265.1 273.73,285.96 " fill="none" id="Collection-backto-AbstractCollection" style="stroke:#181818;stroke-width:1.0;stroke-dasharray:7.0,7.0;"/><polygon fill="none" points="212.24,134.05,214.7777,152.8532,225.5521,147.5699,212.24,134.05" style="stroke:#181818;stroke-width:1.0;"/></g><!--reverse link AbstractCollection to AbstractList--><g id="link_AbstractCollection_AbstractList"><path d="M278.75,336.27 C278.75,352.92 278.75,361.4 278.75,377.96 " fill="none" id="AbstractCollection-backto-AbstractList" style="stroke:#181818;stroke-width:1.0;"/><polygon fill="none" points="278.75,318.27,272.75,336.27,284.75,336.27,278.75,318.27" style="stroke:#181818;stroke-width:1.0;"/></g><!--reverse link List to AbstractList--><g id="link_List_AbstractList"><path d="M171.7004,327.4603 C198.8404,344.0803 226.89,361.25 254.06,377.89 " fill="none" id="List-backto-AbstractList" style="stroke:#181818;stroke-width:1.0;stroke-dasharray:7.0,7.0;"/><polygon fill="none" points="156.35,318.06,168.567,332.5771,174.8338,322.3435,156.35,318.06" style="stroke:#181818;stroke-width:1.0;"/></g><!--reverse link AbstractList to AbstractSequentialList--><g id="link_AbstractList_AbstractSequentialList"><path d="M281.6937,428.1993 C283.1737,444.8493 283.94,453.4 285.41,469.96 " fill="none" id="AbstractList-backto-AbstractSequentialList" style="stroke:#181818;stroke-width:1.0;"/><polygon fill="none" points="280.1,410.27,275.7173,428.7305,287.6702,427.6681,280.1,410.27" style="stroke:#181818;stroke-width:1.0;"/></g><!--reverse link AbstractList to ArrayList--><g id="link_AbstractList_ArrayList"><path d="M234.3833,418.4848 C203.0033,435.1048 168.71,453.25 137.29,469.89 " fill="none" id="AbstractList-backto-ArrayList" style="stroke:#181818;stroke-width:1.0;"/><polygon fill="none" points="250.29,410.06,231.575,413.1825,237.1916,423.787,250.29,410.06" style="stroke:#181818;stroke-width:1.0;"/></g><!--reverse link List to ArrayList--><g id="link_List_ArrayList"><path d="M127.5637,336.058 C123.2237,370.408 114.97,435.79 110.65,469.97 " fill="none" id="List-backto-ArrayList" style="stroke:#181818;stroke-width:1.0;stroke-dasharray:7.0,7.0;"/><polygon fill="none" points="129.82,318.2,121.611,335.3059,133.5164,336.8101,129.82,318.2" style="stroke:#181818;stroke-width:1.0;"/></g><!--reverse link AbstractList to Vector--><g id="link_AbstractList_Vector"><path d="M324.6024,418.1841 C357.4624,434.8041 393.96,453.25 426.86,469.89 " fill="none" id="AbstractList-backto-Vector" style="stroke:#181818;stroke-width:1.0;"/><polygon fill="none" points="308.54,410.06,321.8943,423.5382,327.3104,412.8299,308.54,410.06" style="stroke:#181818;stroke-width:1.0;"/></g><!--reverse link List to Vector--><g id="link_List_Vector"><path d="M182.2036,318.4448 C240.4936,336.3848 339.29,367.48 355.75,378 C394.92,403.04 429.44,446.56 446.13,469.62 " fill="none" id="List-backto-Vector" style="stroke:#181818;stroke-width:1.0;stroke-dasharray:7.0,7.0;"/><polygon fill="none" points="165,313.15,180.4387,324.1793,183.9686,312.7102,165,313.15" style="stroke:#181818;stroke-width:1.0;"/></g><!--reverse link Vector to Stack--><g id="link_Vector_Stack"><path d="M456.75,520.27 C456.75,536.92 456.75,545.4 456.75,561.96 " fill="none" id="Vector-backto-Stack" style="stroke:#181818;stroke-width:1.0;"/><polygon fill="none" points="456.75,502.27,450.75,520.27,462.75,520.27,456.75,502.27" style="stroke:#181818;stroke-width:1.0;"/></g><!--reverse link AbstractSequentialList to LinkedList--><g id="link_AbstractSequentialList_LinkedList"><path d="M248.1711,511.7972 C222.3311,528.4172 196.13,545.25 170.25,561.89 " fill="none" id="AbstractSequentialList-backto-LinkedList" style="stroke:#181818;stroke-width:1.0;"/><polygon fill="none" points="263.31,502.06,244.9253,506.7509,251.4168,516.8435,263.31,502.06" style="stroke:#181818;stroke-width:1.0;"/></g><!--reverse link List to LinkedList--><g id="link_List_LinkedList"><path d="M102.1081,330.7303 C67.3181,364.3603 6,434.86 40.75,502 C55.2,529.93 85.38,549.69 109.85,561.89 " fill="none" id="List-backto-LinkedList" style="stroke:#181818;stroke-width:1.0;stroke-dasharray:7.0,7.0;"/><polygon fill="none" points="115.05,318.22,97.938,326.4164,106.2783,335.0443,115.05,318.22" style="stroke:#181818;stroke-width:1.0;"/></g><!--SRC=[bOz13e8m44NtFKKFGaYCSM723kD-QCVOq1PinqHYlBiGK5ei9ExQpd_lJwzA8aVJKiSDcWeTOyeIkWi8vCV-09N6x9JpvoiOx1kjKP1gR7R8EJu8hVJVU9mjyNP7Ar2ceVarnWhbASmbD0F0eFBaG10N6hpdk-aQbodJQZHeQTctGY_BVwsXSaXloCRDIO5Uqtu4R0ATWsupcoWVqNE_NUF-vqe2KOVOA9e3XR8rohMbuY-cQju0]--></g></svg>