<svg width="532" xmlns:ev="http://www.w3.org/2001/xml-events" viewBox="0 0 532 782" xmlns:ed="https://www.edrawsoft.cn/xml/2017/SVGExtensions/" ed:name="GOF23" height="782" ed:hSpacing="30" ed:vSpacing="30" xmlns:xlink="http://www.w3.org/1999/xlink" id="page300000100" xmlns="http://www.w3.org/2000/svg"><style type="text/css"><![CDATA[
g[ed\:togtopicid],g[ed\:hyperlink],g[ed\:comment],g[ed\:note] {cursor:pointer;}
g[id] {-moz-user-select: none;-ms-user-select: none;user-select: none;}
svg text::selection,svg tspan::selection{background-color: #4285f4;color: #ffffff;fill: #ffffff;}
.st3 {fill:#303030;font-family:微软雅黑;font-size:10pt}
.st2 {fill:#303030;font-family:微软雅黑;font-size:14pt;font-weight:bold}
.st1 {fill:#303030;font-family:微软雅黑;font-size:18pt;font-weight:bold}
]]></style><defs/><rect width="532" height="782" fill="#ffffff" y="0" x="0"/><path d="M-53.3,95.9C-40.3,-0.2,-4.3,-127.4,69.3,-127.4" stroke-width="3" ed:parentid="101" stroke-linejoin="round" fill="none" transform="matrix(1,0,0,1,167.84,221.94)" ed:tosuperid="102" stroke-linecap="round" stroke="#44488c" id="103"/><path d="M-0.1,0.7C13,-10.1,35.1,-19.7,69.3,-19.7" stroke-width="3" ed:parentid="101" stroke-linejoin="round" fill="none" transform="matrix(1,0,0,1,167.84,329.69)" ed:tosuperid="104" stroke-linecap="round" stroke="#ff7c78" id="105"/><path d="M-53.3,-95.9C-40.3,0.2,-4.3,127.4,69.3,127.4" stroke-width="3" ed:parentid="101" stroke-linejoin="round" fill="none" transform="matrix(1,0,0,1,167.84,476.81)" ed:tosuperid="106" stroke-linecap="round" stroke="#46ba7d" id="107"/><path d="M-13.5,31.5L0,31.5L0,-25.5C0,-28.8,2.7,-31.5,6,-31.5L13.5,-31.5" ed:parentid="102" stroke-linejoin="round" fill="none" transform="matrix(1,0,0,1,395.14,63)" ed:tosuperid="108" stroke-linecap="round" stroke="#44488c" id="109"/><path d="M0,15.8L0,-9.8C0,-13.1,2.7,-15.8,6,-15.8L13.5,-15.8" ed:parentid="102" stroke-linejoin="round" fill="none" transform="matrix(1,0,0,1,395.14,78.75)" ed:tosuperid="110" stroke-linecap="round" stroke="#44488c" id="111"/><path d="M0,0C0,0,2.7,0,6,0L13.5,0" ed:parentid="102" stroke-linejoin="round" fill="none" transform="matrix(1,0,0,1,395.14,94.5)" ed:tosuperid="112" stroke-linecap="round" stroke="#44488c" id="113"/><path d="M0,-15.8L0,9.8C0,13.1,2.7,15.8,6,15.8L13.5,15.8" ed:parentid="102" stroke-linejoin="round" fill="none" transform="matrix(1,0,0,1,395.14,110.25)" ed:tosuperid="114" stroke-linecap="round" stroke="#44488c" id="115"/><path d="M0,-31.5L0,25.5C0,28.8,2.7,31.5,6,31.5L13.5,31.5" ed:parentid="102" stroke-linejoin="round" fill="none" transform="matrix(1,0,0,1,395.14,126)" ed:tosuperid="116" stroke-linecap="round" stroke="#44488c" id="117"/><path d="M-13.5,47.3L0,47.3L0,-41.3C0,-44.6,2.7,-47.3,6,-47.3L13.5,-47.3" ed:parentid="104" stroke-linejoin="round" fill="none" transform="matrix(1,0,0,1,395.14,262.75)" ed:tosuperid="118" stroke-linecap="round" stroke="#ff7c78" id="119"/><path d="M0,31.5L0,-25.5C0,-28.8,2.7,-31.5,6,-31.5L13.5,-31.5" ed:parentid="104" stroke-linejoin="round" fill="none" transform="matrix(1,0,0,1,395.14,278.5)" ed:tosuperid="120" stroke-linecap="round" stroke="#ff7c78" id="121"/><path d="M0,15.8L0,-9.8C0,-13.1,2.7,-15.8,6,-15.8L13.5,-15.8" ed:parentid="104" stroke-linejoin="round" fill="none" transform="matrix(1,0,0,1,395.14,294.25)" ed:tosuperid="122" stroke-linecap="round" stroke="#ff7c78" id="123"/><path d="M0,0C0,0,2.7,0,6,0L13.5,0" ed:parentid="104" stroke-linejoin="round" fill="none" transform="matrix(1,0,0,1,395.14,310)" ed:tosuperid="124" stroke-linecap="round" stroke="#ff7c78" id="125"/><path d="M0,-15.8L0,9.8C0,13.1,2.7,15.8,6,15.8L13.5,15.8" ed:parentid="104" stroke-linejoin="round" fill="none" transform="matrix(1,0,0,1,395.14,325.75)" ed:tosuperid="126" stroke-linecap="round" stroke="#ff7c78" id="127"/><path d="M0,-31.5L0,25.5C0,28.8,2.7,31.5,6,31.5L13.5,31.5" ed:parentid="104" stroke-linejoin="round" fill="none" transform="matrix(1,0,0,1,395.14,341.5)" ed:tosuperid="128" stroke-linecap="round" stroke="#ff7c78" id="129"/><path d="M0,-47.3L0,41.3C0,44.6,2.7,47.3,6,47.3L13.5,47.3" ed:parentid="104" stroke-linejoin="round" fill="none" transform="matrix(1,0,0,1,395.14,357.25)" ed:tosuperid="130" stroke-linecap="round" stroke="#ff7c78" id="131"/><path d="M-13.5,70.9L0,70.9L0,-64.9C0,-68.2,2.7,-70.9,6,-70.9L13.5,-70.9" ed:parentid="106" stroke-linejoin="round" fill="none" transform="matrix(1,0,0,1,376.14,533.38)" ed:tosuperid="132" stroke-linecap="round" stroke="#46ba7d" id="133"/><path d="M0,55.1L0,-49.1C0,-52.4,2.7,-55.1,6,-55.1L13.5,-55.1" ed:parentid="106" stroke-linejoin="round" fill="none" transform="matrix(1,0,0,1,376.14,549.13)" ed:tosuperid="134" stroke-linecap="round" stroke="#46ba7d" id="135"/><path d="M0,39.4L0,-33.4C0,-36.7,2.7,-39.4,6,-39.4L13.5,-39.4" ed:parentid="106" stroke-linejoin="round" fill="none" transform="matrix(1,0,0,1,376.14,564.88)" ed:tosuperid="136" stroke-linecap="round" stroke="#46ba7d" id="137"/><path d="M0,23.6L0,-17.6C0,-20.9,2.7,-23.6,6,-23.6L13.5,-23.6" ed:parentid="106" stroke-linejoin="round" fill="none" transform="matrix(1,0,0,1,376.14,580.63)" ed:tosuperid="138" stroke-linecap="round" stroke="#46ba7d" id="139"/><path d="M0,7.9L0,-1.9C0,-5.2,2.7,-7.9,6,-7.9L13.5,-7.9" ed:parentid="106" stroke-linejoin="round" fill="none" transform="matrix(1,0,0,1,376.14,596.38)" ed:tosuperid="140" stroke-linecap="round" stroke="#46ba7d" id="141"/><path d="M0,-7.9L0,1.9C0,5.2,2.7,7.9,6,7.9L13.5,7.9" ed:parentid="106" stroke-linejoin="round" fill="none" transform="matrix(1,0,0,1,376.14,612.13)" ed:tosuperid="142" stroke-linecap="round" stroke="#46ba7d" id="143"/><path d="M0,-23.6L0,17.6C0,20.9,2.7,23.6,6,23.6L13.5,23.6" ed:parentid="106" stroke-linejoin="round" fill="none" transform="matrix(1,0,0,1,376.14,627.88)" ed:tosuperid="144" stroke-linecap="round" stroke="#46ba7d" id="145"/><path d="M0,-39.4L0,33.4C0,36.7,2.7,39.4,6,39.4L13.5,39.4" ed:parentid="106" stroke-linejoin="round" fill="none" transform="matrix(1,0,0,1,376.14,643.63)" ed:tosuperid="146" stroke-linecap="round" stroke="#46ba7d" id="147"/><path d="M0,-55.1L0,49.1C0,52.4,2.7,55.1,6,55.1L13.5,55.1" ed:parentid="106" stroke-linejoin="round" fill="none" transform="matrix(1,0,0,1,376.14,659.38)" ed:tosuperid="148" stroke-linecap="round" stroke="#46ba7d" id="149"/><path d="M0,-70.9L0,64.9C0,68.2,2.7,70.9,6,70.9L13.5,70.9" ed:parentid="106" stroke-linejoin="round" fill="none" transform="matrix(1,0,0,1,376.14,675.13)" ed:tosuperid="150" stroke-linecap="round" stroke="#46ba7d" id="151"/><g ed:topictype="mainidea" ed:layout="rightmap" transform="matrix(1,0,0,1,23,317.88)" ed:height="63" id="101" ed:width="151.12"><path d="M31.5,0L119.6,0C137,0,151.1,14.1,151.1,31.5C151.1,48.9,137,63,119.6,63L31.5,63C14.1,63,0,48.9,0,31.5C0,14.1,14.1,0,31.5,0z" stroke-width="3" stroke-linejoin="round" fill="#ffffff" stroke-linecap="round" stroke="#24405d"/><text class="st1"><tspan textLength="96" y="40.45" x="27" style="white-space:pre">设计模式</tspan></text></g><g ed:parentid="101" transform="matrix(1,0,0,1,237.12,72.5)" ed:height="44" id="102" ed:width="144.51999999999998"><path d="M22,0L122.5,0C134.7,0,144.5,9.8,144.5,22C144.5,34.2,134.7,44,122.5,44L22,44C9.8,44,0,34.2,0,22C0,9.8,9.8,0,22,0z" stroke-width="3" stroke-linejoin="round" fill="#ffffff" stroke-linecap="round" stroke="#44488c"/><text class="st2"><tspan textLength="95" y="28.45" x="25" style="white-space:pre">创建型模式</tspan></text></g><g ed:parentid="101" transform="matrix(1,0,0,1,237.12,288)" ed:height="44" id="104" ed:width="144.51999999999998"><path d="M22,0L122.5,0C134.7,0,144.5,9.8,144.5,22C144.5,34.2,134.7,44,122.5,44L22,44C9.8,44,0,34.2,0,22C0,9.8,9.8,0,22,0z" stroke-width="3" stroke-linejoin="round" fill="#ffffff" stroke-linecap="round" stroke="#ff7c78"/><text class="st2"><tspan textLength="95" y="28.45" x="25" style="white-space:pre">结构型模式</tspan></text></g><g ed:parentid="101" transform="matrix(1,0,0,1,237.12,582.25)" ed:height="44" id="106" ed:width="125.51999999999998"><path d="M22,0L103.5,0C115.7,0,125.5,9.8,125.5,22C125.5,34.2,115.7,44,103.5,44L22,44C9.8,44,0,34.2,0,22C0,9.8,9.8,0,22,0z" stroke-width="3" stroke-linejoin="round" fill="#ffffff" stroke-linecap="round" stroke="#46ba7d"/><text class="st2"><tspan textLength="76" y="28.45" x="25" style="white-space:pre">行为模式</tspan></text></g><g ed:parentid="102" transform="matrix(1,0,0,1,408.64,19)" ed:height="25" id="108" ed:width="102.03999999999999"><path d="M12.5,0L89.5,0C96.4,0,102,5.6,102,12.5C102,19.4,96.4,25,89.5,25L12.5,25C5.6,25,0,19.4,0,12.5C0,5.6,5.6,0,12.5,0z" stroke-linejoin="round" fill="none" stroke-linecap="round" stroke="#44488c"/><text class="st3"><tspan textLength="78" y="17.45" x="11" style="white-space:pre">工厂方法模式</tspan></text></g><g ed:parentid="102" transform="matrix(1,0,0,1,408.64,50.5)" ed:height="25" id="110" ed:width="102.03999999999999"><path d="M12.5,0L89.5,0C96.4,0,102,5.6,102,12.5C102,19.4,96.4,25,89.5,25L12.5,25C5.6,25,0,19.4,0,12.5C0,5.6,5.6,0,12.5,0z" stroke-linejoin="round" fill="none" stroke-linecap="round" stroke="#44488c"/><text class="st3"><tspan textLength="78" y="17.45" x="11" style="white-space:pre">抽象工厂模式</tspan></text></g><g ed:parentid="102" transform="matrix(1,0,0,1,408.64,82)" ed:height="25" id="112" ed:width="89.039999999999992"><path d="M12.5,0L76.5,0C83.4,0,89,5.6,89,12.5C89,19.4,83.4,25,76.5,25L12.5,25C5.6,25,0,19.4,0,12.5C0,5.6,5.6,0,12.5,0z" stroke-linejoin="round" fill="none" stroke-linecap="round" stroke="#44488c"/><text class="st3"><tspan textLength="65" y="17.45" x="11" style="white-space:pre">生成器模式</tspan></text></g><g ed:parentid="102" transform="matrix(1,0,0,1,408.64,113.5)" ed:height="25" id="114" ed:width="76.039999999999992"><path d="M12.5,0L63.5,0C70.4,0,76,5.6,76,12.5C76,19.4,70.4,25,63.5,25L12.5,25C5.6,25,0,19.4,0,12.5C0,5.6,5.6,0,12.5,0z" stroke-linejoin="round" fill="none" stroke-linecap="round" stroke="#44488c"/><text class="st3"><tspan textLength="52" y="17.45" x="11" style="white-space:pre">原型模式</tspan></text></g><g ed:parentid="102" transform="matrix(1,0,0,1,408.64,145)" ed:height="25" id="116" ed:width="76.039999999999992"><path d="M12.5,0L63.5,0C70.4,0,76,5.6,76,12.5C76,19.4,70.4,25,63.5,25L12.5,25C5.6,25,0,19.4,0,12.5C0,5.6,5.6,0,12.5,0z" stroke-linejoin="round" fill="none" stroke-linecap="round" stroke="#44488c"/><text class="st3"><tspan textLength="52" y="17.45" x="11" style="white-space:pre">单例模式</tspan></text></g><g ed:parentid="104" transform="matrix(1,0,0,1,408.64,203)" ed:height="25" id="118" ed:width="89.039999999999992"><path d="M12.5,0L76.5,0C83.4,0,89,5.6,89,12.5C89,19.4,83.4,25,76.5,25L12.5,25C5.6,25,0,19.4,0,12.5C0,5.6,5.6,0,12.5,0z" stroke-linejoin="round" fill="none" stroke-linecap="round" stroke="#ff7c78"/><text class="st3"><tspan textLength="65" y="17.45" x="11" style="white-space:pre">适配器模式</tspan></text></g><g ed:parentid="104" transform="matrix(1,0,0,1,408.64,234.5)" ed:height="25" id="120" ed:width="76.039999999999992"><path d="M12.5,0L63.5,0C70.4,0,76,5.6,76,12.5C76,19.4,70.4,25,63.5,25L12.5,25C5.6,25,0,19.4,0,12.5C0,5.6,5.6,0,12.5,0z" stroke-linejoin="round" fill="none" stroke-linecap="round" stroke="#ff7c78"/><text class="st3"><tspan textLength="52" y="17.45" x="11" style="white-space:pre">桥接模式</tspan></text></g><g ed:parentid="104" transform="matrix(1,0,0,1,408.64,266)" ed:height="25" id="122" ed:width="76.039999999999992"><path d="M12.5,0L63.5,0C70.4,0,76,5.6,76,12.5C76,19.4,70.4,25,63.5,25L12.5,25C5.6,25,0,19.4,0,12.5C0,5.6,5.6,0,12.5,0z" stroke-linejoin="round" fill="none" stroke-linecap="round" stroke="#ff7c78"/><text class="st3"><tspan textLength="52" y="17.45" x="11" style="white-space:pre">组合模式</tspan></text></g><g ed:parentid="104" transform="matrix(1,0,0,1,408.64,297.5)" ed:height="25" id="124" ed:width="89.039999999999992"><path d="M12.5,0L76.5,0C83.4,0,89,5.6,89,12.5C89,19.4,83.4,25,76.5,25L12.5,25C5.6,25,0,19.4,0,12.5C0,5.6,5.6,0,12.5,0z" stroke-linejoin="round" fill="none" stroke-linecap="round" stroke="#ff7c78"/><text class="st3"><tspan textLength="65" y="17.45" x="11" style="white-space:pre">装饰器模式</tspan></text></g><g ed:parentid="104" transform="matrix(1,0,0,1,408.64,329)" ed:height="25" id="126" ed:width="76.039999999999992"><path d="M12.5,0L63.5,0C70.4,0,76,5.6,76,12.5C76,19.4,70.4,25,63.5,25L12.5,25C5.6,25,0,19.4,0,12.5C0,5.6,5.6,0,12.5,0z" stroke-linejoin="round" fill="none" stroke-linecap="round" stroke="#ff7c78"/><text class="st3"><tspan textLength="52" y="17.45" x="11" style="white-space:pre">外观模式</tspan></text></g><g ed:parentid="104" transform="matrix(1,0,0,1,408.64,360.5)" ed:height="25" id="128" ed:width="76.039999999999992"><path d="M12.5,0L63.5,0C70.4,0,76,5.6,76,12.5C76,19.4,70.4,25,63.5,25L12.5,25C5.6,25,0,19.4,0,12.5C0,5.6,5.6,0,12.5,0z" stroke-linejoin="round" fill="none" stroke-linecap="round" stroke="#ff7c78"/><text class="st3"><tspan textLength="52" y="17.45" x="11" style="white-space:pre">享元模式</tspan></text></g><g ed:parentid="104" transform="matrix(1,0,0,1,408.64,392)" ed:height="25" id="130" ed:width="76.039999999999992"><path d="M12.5,0L63.5,0C70.4,0,76,5.6,76,12.5C76,19.4,70.4,25,63.5,25L12.5,25C5.6,25,0,19.4,0,12.5C0,5.6,5.6,0,12.5,0z" stroke-linejoin="round" fill="none" stroke-linecap="round" stroke="#ff7c78"/><text class="st3"><tspan textLength="52" y="17.45" x="11" style="white-space:pre">代理模式</tspan></text></g><g ed:parentid="106" transform="matrix(1,0,0,1,389.64,450)" ed:height="25" id="132" ed:width="89.039999999999992"><path d="M12.5,0L76.5,0C83.4,0,89,5.6,89,12.5C89,19.4,83.4,25,76.5,25L12.5,25C5.6,25,0,19.4,0,12.5C0,5.6,5.6,0,12.5,0z" stroke-linejoin="round" fill="none" stroke-linecap="round" stroke="#46ba7d"/><text class="st3"><tspan textLength="65" y="17.45" x="11" style="white-space:pre">责任链模式</tspan></text></g><g ed:parentid="106" transform="matrix(1,0,0,1,389.64,481.5)" ed:height="25" id="134" ed:width="76.039999999999992"><path d="M12.5,0L63.5,0C70.4,0,76,5.6,76,12.5C76,19.4,70.4,25,63.5,25L12.5,25C5.6,25,0,19.4,0,12.5C0,5.6,5.6,0,12.5,0z" stroke-linejoin="round" fill="none" stroke-linecap="round" stroke="#46ba7d"/><text class="st3"><tspan textLength="52" y="17.45" x="11" style="white-space:pre">命令模式</tspan></text></g><g ed:parentid="106" transform="matrix(1,0,0,1,389.64,513)" ed:height="25" id="136" ed:width="89.039999999999992"><path d="M12.5,0L76.5,0C83.4,0,89,5.6,89,12.5C89,19.4,83.4,25,76.5,25L12.5,25C5.6,25,0,19.4,0,12.5C0,5.6,5.6,0,12.5,0z" stroke-linejoin="round" fill="none" stroke-linecap="round" stroke="#46ba7d"/><text class="st3"><tspan textLength="65" y="17.45" x="11" style="white-space:pre">迭代器模式</tspan></text></g><g ed:parentid="106" transform="matrix(1,0,0,1,389.64,544.5)" ed:height="25" id="138" ed:width="89.039999999999992"><path d="M12.5,0L76.5,0C83.4,0,89,5.6,89,12.5C89,19.4,83.4,25,76.5,25L12.5,25C5.6,25,0,19.4,0,12.5C0,5.6,5.6,0,12.5,0z" stroke-linejoin="round" fill="none" stroke-linecap="round" stroke="#46ba7d"/><text class="st3"><tspan textLength="65" y="17.45" x="11" style="white-space:pre">中介者模式</tspan></text></g><g ed:parentid="106" transform="matrix(1,0,0,1,389.64,576)" ed:height="25" id="140" ed:width="89.039999999999992"><path d="M12.5,0L76.5,0C83.4,0,89,5.6,89,12.5C89,19.4,83.4,25,76.5,25L12.5,25C5.6,25,0,19.4,0,12.5C0,5.6,5.6,0,12.5,0z" stroke-linejoin="round" fill="none" stroke-linecap="round" stroke="#46ba7d"/><text class="st3"><tspan textLength="65" y="17.45" x="11" style="white-space:pre">备忘录模式</tspan></text></g><g ed:parentid="106" transform="matrix(1,0,0,1,389.64,607.5)" ed:height="25" id="142" ed:width="89.039999999999992"><path d="M12.5,0L76.5,0C83.4,0,89,5.6,89,12.5C89,19.4,83.4,25,76.5,25L12.5,25C5.6,25,0,19.4,0,12.5C0,5.6,5.6,0,12.5,0z" stroke-linejoin="round" fill="none" stroke-linecap="round" stroke="#46ba7d"/><text class="st3"><tspan textLength="65" y="17.45" x="11" style="white-space:pre">观察者模式</tspan></text></g><g ed:parentid="106" transform="matrix(1,0,0,1,389.64,639)" ed:height="25" id="144" ed:width="76.039999999999992"><path d="M12.5,0L63.5,0C70.4,0,76,5.6,76,12.5C76,19.4,70.4,25,63.5,25L12.5,25C5.6,25,0,19.4,0,12.5C0,5.6,5.6,0,12.5,0z" stroke-linejoin="round" fill="none" stroke-linecap="round" stroke="#46ba7d"/><text class="st3"><tspan textLength="52" y="17.45" x="11" style="white-space:pre">状态模式</tspan></text></g><g ed:parentid="106" transform="matrix(1,0,0,1,389.64,670.5)" ed:height="25" id="146" ed:width="76.039999999999992"><path d="M12.5,0L63.5,0C70.4,0,76,5.6,76,12.5C76,19.4,70.4,25,63.5,25L12.5,25C5.6,25,0,19.4,0,12.5C0,5.6,5.6,0,12.5,0z" stroke-linejoin="round" fill="none" stroke-linecap="round" stroke="#46ba7d"/><text class="st3"><tspan textLength="52" y="17.45" x="11" style="white-space:pre">策略模式</tspan></text></g><g ed:parentid="106" transform="matrix(1,0,0,1,389.64,702)" ed:height="25" id="148" ed:width="76.039999999999992"><path d="M12.5,0L63.5,0C70.4,0,76,5.6,76,12.5C76,19.4,70.4,25,63.5,25L12.5,25C5.6,25,0,19.4,0,12.5C0,5.6,5.6,0,12.5,0z" stroke-linejoin="round" fill="none" stroke-linecap="round" stroke="#46ba7d"/><text class="st3"><tspan textLength="52" y="17.45" x="11" style="white-space:pre">模板模式</tspan></text></g><g ed:parentid="106" transform="matrix(1,0,0,1,389.64,733.5)" ed:height="25" id="150" ed:width="89.039999999999992"><path d="M12.5,0L76.5,0C83.4,0,89,5.6,89,12.5C89,19.4,83.4,25,76.5,25L12.5,25C5.6,25,0,19.4,0,12.5C0,5.6,5.6,0,12.5,0z" stroke-linejoin="round" fill="none" stroke-linecap="round" stroke="#46ba7d"/><text class="st3"><tspan textLength="65" y="17.45" x="11" style="white-space:pre">访问者模式</tspan></text></g></svg>