<?xml version="1.0" encoding="UTF-8" standalone="no"?><svg xmlns="http://www.w3.org/2000/svg" xmlns:xlink="http://www.w3.org/1999/xlink" contentStyleType="text/css" height="118px" preserveAspectRatio="none" style="width:253px;height:118px;background:#FFFFFF;" version="1.1" viewBox="0 0 253 118" width="253px" zoomAndPan="magnify"><defs/><g><!--MD5=[1e027d57dbaf3c387f7e9695ea34bb26]
class OriginDevice--><g id="elem_OriginDevice"><rect codeLine="2" fill="#F1F1F1" height="97.3604" id="OriginDevice" rx="2.5" ry="2.5" style="stroke:#181818;stroke-width:0.5;" width="232" x="7" y="7"/><ellipse cx="78.25" cy="23" fill="#ADD1B2" rx="11" ry="11" style="stroke:#181818;stroke-width:1.0;"/><path d="M77.5938,28.8594 Q75.6094,28.8594 74.4375,27.3906 Q73.2813,25.9063 73.2813,22.8281 Q73.2813,20.2188 74.5,18.4688 Q75.7344,16.7188 77.8594,16.7188 Q78.3594,16.7188 78.8906,16.8594 Q79.3281,17.0469 79.5938,17.0469 Q79.8125,17.0469 79.9063,17 Q80.0156,16.9531 80.4688,16.3594 L81.2344,20.0938 L80.3438,20.3594 Q79.8906,18.9063 79.2813,18.3125 Q78.6875,17.7031 77.7344,17.7031 Q76.5156,17.7031 75.7969,19.1406 Q75.0781,20.5625 75.0781,22.75 Q75.0781,25.1563 75.6875,26.4531 Q76.3125,27.7344 77.6719,27.7344 Q78.625,27.7344 79.3125,27.0469 Q80,26.3438 80.3281,24.8438 L81.2344,25.25 Q80.8281,26.9531 79.8594,27.9063 Q78.9063,28.8594 77.5938,28.8594 Z " fill="#000000"/><text fill="#000000" font-family="sans-serif" font-size="14" lengthAdjust="spacing" textLength="81" x="98.75" y="29.4839">OriginDevice</text><line style="stroke:#181818;stroke-width:0.5;" x1="8" x2="238" y1="39" y2="39"/><text fill="#000000" font-family="sans-serif" font-size="14" lengthAdjust="spacing" textLength="220" x="13" y="59.0439">private String externalDomainCode</text><text fill="#000000" font-family="sans-serif" font-size="14" lengthAdjust="spacing" textLength="140" x="13" y="78.1641">private String deviceId</text><text fill="#000000" font-family="sans-serif" font-size="14" lengthAdjust="spacing" textLength="140" x="13" y="97.2842">private String parentId</text></g><!--MD5=[4d2e9d70f3050718bb95c45e30a08503]
@startuml model
hide empty members
class OriginDevice {
    private String externalDomainCode
    private String deviceId
    private String parentId
}
@enduml

PlantUML version 1.2022.7(Tue Aug 23 01:01:30 CST 2022)
(GPL source distribution)
Java Runtime: OpenJDK Runtime Environment
JVM: OpenJDK 64-Bit Server VM
Default Encoding: GBK
Language: zh
Country: CN
--></g></svg>